<?xml version="1.0" encoding="utf-8"?>
<!-- Generator: Adobe Illustrator 27.5.0, SVG Export Plug-In . SVG Version: 6.00 Build 0)  -->
<svg version="1.1" id="Ñëîé_1" xmlns="http://www.w3.org/2000/svg" xmlns:xlink="http://www.w3.org/1999/xlink" x="0px" y="0px"
	 viewBox="0 0 450 450" style="enable-background:new 0 0 450 450;" xml:space="preserve">
<rect style="fill:#FFFFFF;" width="450" height="450"/>
<path style="fill:#242424;" d="M190.143,206.213c-9.561,5.265,1.281,62.084,12.573,78.04c5.719,8.086,6.056,45.884,1.194,53.497
	c-5.123,8.02-10.703,16.755-14.677,25.295c-2.547,5.48-4.945,12.213-5.912,18.256c-0.568,3.569-1.672,16.788,2.104,19.026
	c3.588,2.125,16.167-5.336,19.02-7.107c6.752-4.189,13.771-7.619,20.475-11.934c8.238-5.303,13.219-13.742,23.436-7.228
	c12.642,8.066,22.588,19.584,36.721,25.561c7.4,3.129,16.045,5.246,24.035,2.676c7.095-2.279,3.734-6.59,1.82-12.482
	c-1.771-5.458-2.354-11.71-5.244-16.497c-30.027-49.731-15.953-80.137-11.276-87.103c2.127-3.169,4.42-4.591,7.095-7.071
	c3.609-3.348,15.653-66.186,13.085-69.528c-4.157-5.399-16.461-8.57-22.557-9.939c-3.92-0.881-7.835-1.496-12.249-1.458
	c-14.956,0.119-56.003-1.313-64.825-0.201C206.422,199.09,197.674,202.065,190.143,206.213z"/>
<path style="fill:#D1B270;" d="M190.044,206.18c-9.561,5.266,1.281,62.085,12.573,78.042c5.721,8.085,6.056,45.881,1.195,53.495
	c-5.122,8.018-10.704,16.754-14.676,25.294c-2.548,5.481-4.946,12.215-5.912,18.257c-0.569,3.568-1.674,16.787,2.103,19.026
	c3.587,2.124,16.17-5.335,19.02-7.105c6.751-4.191,13.772-7.618,20.473-11.936c8.241-5.301,13.221-13.74,23.436-7.225
	c12.643,8.064,22.59,19.583,36.721,25.559c7.4,3.13,16.046,5.247,24.038,2.677c7.093-2.28,3.735-6.594,1.819-12.483
	c-1.772-5.458-2.358-11.71-5.246-16.496c-30.025-49.731-15.95-80.136-11.273-87.104c2.126-3.167,4.416-4.591,7.095-7.072
	c3.605-3.346,15.652-66.186,13.082-69.527c-4.155-5.398-16.458-8.57-22.556-9.938c-3.919-0.88-7.835-1.495-12.249-1.46
	c-14.954,0.121-56.003-1.311-64.824-0.2C206.323,199.057,197.575,202.034,190.044,206.18z"/>
<g>
	<path style="fill:#552A0A;" d="M264.896,33.768c8.855-4.634,21.176,2.237,28.451,10.802c17.813,20.973,23.501,50.852,25.089,62.516
		c3.314,24.397-14.39,50.715-29.232,57.761c-30.658,14.554-70.352,3.235-76.632,1.284c-17.67-5.479-32.867-35.75-32.13-52.225
		c0.352-7.877,4.475-85.6,65.265-85.6C257.309,28.306,264.896,33.768,264.896,33.768z"/>
	<path style="fill:#FBC496;" d="M233.313,184.72c-5.752,9.916-15.01,10.468-24.235,12.626c16.558,23.245,61.395,27.442,78.697,1.593
		c-1.918-2.152-5.348-1.783-7.777-3.525c-2.54-1.827-6.035-6.552-7.499-9.554c-2.565-5.262-3.634-12.924-4.18-18.771
		c-0.935-9.945-0.771-10.236-10.497-10.236c-6.074,0-18.172-3.819-20.791,3.272c-1.182,3.199,0.224,8.818-0.118,12.341
		C236.49,176.814,235.475,180.987,233.313,184.72z"/>
	<path style="fill:#EAA879;" d="M253.13,176.215c4.944,0.152,10.838-1.398,15.523-6.004c-0.127-1.076-0.242-2.132-0.335-3.124
		c-0.935-9.945-0.771-10.236-10.497-10.236c-6.074,0-18.172-3.819-20.791,3.272c-0.902,2.442-0.298,6.295-0.113,9.548
		C242.642,174.118,247.743,176.514,253.13,176.215z"/>
	<path style="fill:#FBCDA6;" d="M297.689,105.988c0,34.642-23.733,64.422-44.076,63.781c-20.507,1.166-46.339-29.14-46.339-63.781
		c0-34.638,20.245-62.72,45.206-62.72C277.444,43.268,297.689,71.35,297.689,105.988z"/>
	<g>
		<path style="fill:#DD8F62;" d="M286.267,100.654c0.928,4.089-7.676,9.853-11.505,9.999c-5.451,0.213-11.547-2.896-11.523-5.128
			c0.042-4.482,6.367-10.887,10.887-11.1C279.58,94.176,285.283,96.295,286.267,100.654z"/>
		<path style="fill:#FFFFFF;" d="M285.75,103.045c0.866,3.112-6.088,7.909-11.477,8.117c-5.384,0.209-11.333-2.522-11.292-4.251
			c0.076-3.469,6.191-7.646,10.657-7.847C279.031,98.823,284.813,99.679,285.75,103.045z"/>
		<path style="fill:#779C1D;" d="M281.644,104.661c0,3.568-3.12,6.459-6.965,6.459c-3.85,0-6.969-2.891-6.969-6.459
			c0-3.567,3.716-5.847,7.565-5.847C279.12,98.814,281.644,101.094,281.644,104.661z"/>
		<path style="fill:#020703;" d="M278.404,104.332c0,2.005-1.652,3.631-3.686,3.631c-2.037,0-3.689-1.626-3.689-3.631
			c0-2.007,1.652-3.631,3.689-3.631C276.752,100.701,278.404,102.325,278.404,104.332z"/>
		<path style="fill:#FFFFFF;" d="M278.903,105.783c0,0.695-0.575,1.261-1.283,1.261s-1.28-0.566-1.28-1.261
			c0-0.699,0.572-1.265,1.28-1.265S278.903,105.084,278.903,105.783z"/>
		<path style="fill:#120B02;" d="M275.382,99.877c4.95-0.183,7.706,1.903,10.613,3.913c1.211-0.724,3.139-1.427,4.21-2.504
			c-1.808,0.315-20.076-8.483-27.188,4.022l-0.3,0.726c0.031-0.01,0.149-0.025,0.251-0.038
			C265.293,102.893,270.248,100.063,275.382,99.877z"/>
	</g>
	<g>
		<path style="fill:#DD8F62;" d="M218.45,100.654c-0.928,4.088,7.676,9.853,11.506,9.999c5.45,0.213,11.546-2.896,11.521-5.128
			c-0.042-4.482-6.367-10.887-10.887-11.099C225.137,94.173,219.433,96.295,218.45,100.654z"/>
		<path style="fill:#FFFFFF;" d="M218.966,103.044c-0.868,3.113,6.087,7.908,11.478,8.117c5.384,0.213,11.331-2.521,11.29-4.25
			c-0.077-3.468-6.191-7.646-10.656-7.847C225.684,98.823,219.904,99.679,218.966,103.044z"/>
		<path style="fill:#779C1D;" d="M223.075,104.664c0,3.566,3.116,6.457,6.961,6.457c3.851,0,6.969-2.891,6.969-6.457
			c0-3.567-3.599-5.981-7.449-5.981C225.71,98.682,223.075,101.096,223.075,104.664z"/>
		<path style="fill:#020703;" d="M226.311,104.332c0,2.005,1.651,3.631,3.688,3.631c2.036,0,3.688-1.626,3.688-3.631
			c0-2.005-1.651-3.633-3.688-3.633C227.962,100.699,226.311,102.327,226.311,104.332z"/>
		<path style="fill:#FFFFFF;" d="M225.811,105.781c0,0.697,0.578,1.264,1.284,1.264c0.708,0,1.281-0.566,1.281-1.264
			c0-0.696-0.573-1.263-1.281-1.263C226.389,104.518,225.811,105.085,225.811,105.781z"/>
		<path style="fill:#120B02;" d="M229.334,99.877c-4.951-0.183-7.704,1.903-10.614,3.915c-1.21-0.729-3.136-1.432-4.21-2.508
			c1.809,0.317,20.077-8.482,27.186,4.024l0.305,0.726c-0.034-0.01-0.15-0.025-0.255-0.04
			C239.423,102.893,234.469,100.063,229.334,99.877z"/>
	</g>
	<path style="opacity:0.75;fill:#7A3C0E;" d="M263.665,86.485c-0.275-2.247,1.415-2.724,2.458-3.599
		c1.171-0.804,2.379-1.531,3.613-2.192c2.486-1.295,5.086-2.346,7.874-2.986c1.404-0.299,2.849-0.528,4.437-0.424
		c1.338,0.121,2.942,0.35,4.33,1.026c1.424,0.652,2.589,1.821,3.334,3.052c0.768,1.238,1.238,2.548,1.581,3.863
		c0.064,0.241-0.08,0.484-0.322,0.548c-0.199,0.052-0.408-0.041-0.501-0.216c-1.275-2.288-2.836-4.427-5.014-4.92
		c-1.085-0.327-2.182-0.33-3.482-0.263c-1.065,0.054-2.257,0.363-3.409,0.763c-2.327,0.795-4.602,1.944-6.733,3.249
		c-1.072,0.649-2.106,1.352-3.085,2.105c-1.103,0.687-1.463,1.903-3.636,1.51l-0.022-0.004
		C264.315,87.857,263.755,87.227,263.665,86.485z"/>
	<path style="opacity:0.75;fill:#7A3C0E;" d="M239.852,88.318c-2.184,0.44-2.611-0.788-3.76-1.458
		c-1.03-0.745-2.119-1.436-3.236-2.074c-2.232-1.282-4.604-2.403-7.013-3.184c-1.195-0.394-2.447-0.703-3.543-0.767
		c-0.719-0.032-1.279-0.066-1.887-0.029c-0.614,0.021-1.194,0.11-1.754,0.248c-1.121,0.264-2.144,0.818-3.023,1.698
		c-0.865,0.885-1.614,1.987-2.297,3.146c-0.126,0.213-0.4,0.287-0.613,0.163c-0.18-0.104-0.261-0.32-0.205-0.513
		c0.384-1.338,0.913-2.67,1.756-3.908c0.833-1.235,2.091-2.339,3.556-2.948c1.417-0.608,3.052-0.836,4.399-0.946
		c1.627-0.09,3.071,0.127,4.512,0.415c2.848,0.613,5.527,1.623,8.107,2.88c1.279,0.643,2.53,1.349,3.75,2.137
		c1.097,0.862,2.827,1.303,2.65,3.582c-0.061,0.786-0.642,1.407-1.374,1.556L239.852,88.318z"/>
	<path style="fill:#61300B;" d="M210.713,128.787c1.943,11.21,6.98,27.012,16.828,33.231c-12.968-0.786-26.413-19.603-31.148-31.442
		c-6.512-16.294-7.794-34.301-2.251-51.088c4.384-13.279,36.041-45.957,67.498-39.407c5.51,1.152,4.994,12.604,4.715,16.561
		c-0.409,5.857-3.755,9.208-12.253,15.581c-3.809,2.858-15.887,4.775-18.825,8.366c-0.2-2.939,8.636-7.596,9.148-10.341
		C241.681,72.953,202.638,82.196,210.713,128.787z"/>
	<g>
		<path style="fill:#F14139;" d="M263.755,139.678c-6.035-1.996-8.194-0.211-9.022-0.211c-1.071,0-3.486-1.623-9.112,0.316
			c-1.397,0.485-4.433,0.673-7.469-0.016c1.511,6.827,8.256,11.979,16.351,11.979c13.037,0,16.729-13.643,16.466-12.041
			C266.729,140.655,264.671,139.982,263.755,139.678z"/>
		<path style="fill:#E23F38;" d="M263.81,139.705c-6.033-1.996-8.194-0.211-9.02-0.211c-1.071,0-3.485-1.624-9.11,0.316
			c-1.4,0.484-4.436,0.674-7.472-0.017c0.017,0.079,0.044,0.155,0.064,0.232c1.848,2.853,8.406,4.966,16.235,4.966
			c8.085,0,14.832-2.249,16.418-5.241C266.757,140.667,264.719,140.005,263.81,139.705z"/>
	</g>
	<path style="fill:#E0A174;" d="M247.626,126.611c3.703,2.17,11.057,1.472,12.84,0.116c-0.11,1.048-1.063,2.033-2.296,2.622
		c-1.228,0.614-2.707,0.878-4.157,0.88c-1.456-0.028-2.93-0.314-4.148-0.953C248.645,128.667,247.708,127.664,247.626,126.611z"/>
	<path style="fill:#552A0A;" d="M272.272,43.067c42.051,11.027,30.333,94.02,23.611,98.723c-4.066,2.847,10.998-31.134-1.485-56.913
		c-3.886-8.019-20.632-16.934-26.83-23.907C258.518,50.787,261.097,40.137,272.272,43.067z"/>
	<g>
		<path style="fill:#80461A;" d="M262.822,45.673c2.28-0.483,3.734-2.724,3.252-5.005c-0.293-1.384-1.236-2.456-2.439-2.984
			c0.024-0.081,0.056-0.158,0.073-0.243c0.267-1.373-0.634-2.703-2.007-2.968l-0.073-0.014c-7.43-1.438-15.281-1.762-22.826-0.402
			c-7.559,1.319-14.77,4.361-20.949,8.739c-6.198,4.367-11.389,9.966-15.518,16.182c-4.12,6.221-7.283,13.058-9.15,20.221
			c-0.005,0.013,0.001,0.026,0.015,0.029c0.013,0.005,0.028-0.002,0.033-0.015c2.267-7.038,5.788-13.618,10.166-19.483
			c4.386-5.859,9.737-10.984,15.871-14.805c6.118-3.832,13.02-6.271,20.098-7.099c5.695-0.688,11.423-0.368,17.073,0.69
			c-7.622,1.99-15.13,4.926-21.931,9.002c-8.171,4.859-15.323,11.39-20.771,19.044c-5.47,7.647-9.247,16.345-11.345,25.334
			c-2.035,8.977-2.685,18.369-0.746,27.324c0.022,0.082,0.107,0.142,0.189,0.128c0.09-0.016,0.152-0.102,0.135-0.192
			c-1.256-8.981,0.085-18.119,2.697-26.644c2.672-8.533,6.911-16.528,12.543-23.279c5.622-6.762,12.624-12.231,20.388-16.103
			c7.796-3.895,16.187-6.222,24.912-7.406C262.613,45.713,262.72,45.694,262.822,45.673z"/>
		<path style="fill:#80461A;" d="M265.031,50.304c-1.539-0.434-3.133,0.461-3.567,1.999c-0.363,1.286-0.639,2.15-1.097,3.279
			c-0.434,1.065-0.938,2.118-1.509,3.146c-1.147,2.058-2.525,4.04-4.086,5.898c-1.558,1.862-3.284,3.614-5.157,5.221
			c-1.884,1.588-3.866,3.107-6.137,4.175v0.001c0,0.001,0,0.001,0,0.001c2.441-0.62,4.745-1.758,6.962-2.998
			c2.214-1.262,4.338-2.714,6.347-4.346c1.64-1.11,3.671-3.136,5.615-5.491c0.854-1.017,1.66-2.094,2.398-3.231
			c0.723-1.074,1.486-2.482,2.009-3.531l0.034-0.07c0.072-0.153,0.139-0.315,0.184-0.485
			C267.461,52.335,266.57,50.737,265.031,50.304z"/>
		<path style="fill:#80461A;" d="M299.52,63.547c-2.012-4.225-4.442-8.295-7.435-12.019c-2.973-3.724-6.628-7.047-11.054-9.413
			c-2.221-1.155-4.669-2.008-7.242-2.399c-1.283-0.189-2.599-0.266-3.914-0.206c-0.655,0.037-1.314,0.089-1.965,0.193
			c-0.314,0.047-0.674,0.095-1.011,0.192c-0.318,0.16-0.465,0.566-0.516,1.624l-0.003,0.039c-0.033,0.676,0.131,1.371,0.506,1.994
			c1.11,1.833,1.343,1.054,1.846,1.09c0.481-0.099,0.969-0.157,1.463-0.206c0.981-0.089,1.974-0.071,2.972,0.031
			c1.993,0.214,3.981,0.809,5.884,1.685c3.859,1.71,7.278,4.559,10.375,7.715c3.094,3.192,5.766,6.857,8.086,10.749
			c2.417,3.85,4.369,7.993,6.164,12.235c0.034,0.081,0.121,0.129,0.21,0.108c0.099-0.021,0.16-0.12,0.141-0.218
			C303.011,72.219,301.433,67.823,299.52,63.547z"/>
	</g>
</g>
<path style="fill:#F0F0F0;" d="M254.676,202.818c10.744-1.014,21.315-6.984,31.934-7.719c-1.677,7.802-6.682,15.639-9.902,23.139
	c-4.435,10.326-8.439,20.32-11.147,31.27c-2.766,11.185-14.311,31.92-15.928,31.792c-4.232-0.326-23.261-28.053-30.088-41.516
	c-5.229-10.314-13.343-31.159-5.855-42.236c4.268-6.312,12.066,0.137,17.994,2.139C239.132,202.202,246.802,203.563,254.676,202.818
	z"/>
<path style="fill:#FFFFFF;" d="M254.676,205.818c10.744-1.014,21.315-6.984,31.934-7.719c-1.677,7.802-6.682,15.639-9.902,23.139
	c-4.435,10.326-8.439,20.32-11.147,31.27c-2.766,11.185-14.311,28.92-15.928,28.792c-4.232-0.326-23.261-25.053-30.088-38.516
	c-5.229-10.314-13.343-31.159-5.855-42.236c4.268-6.312,12.066,0.137,17.994,2.139C239.132,205.202,246.802,206.563,254.676,205.818
	z"/>
<g>
	<path style="fill:#D47975;" d="M270.52,193.792c-0.439-0.389-0.504-1.032-0.177-1.465c0.328-0.432,0.966-0.54,1.458-0.223
		c0.492,0.318,0.611,1.004,0.23,1.506C271.65,194.112,270.958,194.179,270.52,193.792z"/>
	<g>
		<path style="fill:#D47975;" d="M267.535,196.748c-0.485-0.604-0.424-1.462,0.1-1.95c0.527-0.489,1.385-0.485,1.953,0.042
			c0.565,0.526,0.564,1.446-0.046,2.011C268.935,197.417,268.018,197.352,267.535,196.748z"/>
		<path style="fill:#D47975;" d="M264.361,198.931c-0.375-0.676-0.175-1.513,0.427-1.906c0.602-0.393,1.447-0.247,1.92,0.37
			c0.467,0.614,0.313,1.521-0.382,1.976C265.63,199.823,264.74,199.606,264.361,198.931z"/>
		<path style="fill:#D47975;" d="M260.709,200.624c-0.257-0.731,0.088-1.517,0.748-1.804c0.661-0.286,1.466,0.003,1.826,0.691
			c0.354,0.686,0.047,1.555-0.713,1.881C261.808,201.724,260.967,201.352,260.709,200.624z"/>
		<path style="fill:#D47975;" d="M256.995,201.641c-0.136-0.762,0.328-1.486,1.027-1.66c0.7-0.173,1.451,0.242,1.691,0.979
			c0.239,0.735-0.206,1.541-1.01,1.741C257.902,202.901,257.13,202.403,256.995,201.641z"/>
	</g>
	<g>
		<path style="fill:#D47975;" d="M253.156,202.057c-0.017-0.776,0.559-1.416,1.278-1.479c0.72-0.061,1.394,0.471,1.513,1.237
			c0.118,0.764-0.448,1.487-1.271,1.556C253.851,203.443,253.17,202.829,253.156,202.057z"/>
		<path style="fill:#D47975;" d="M249.308,201.864c0.108-0.768,0.774-1.307,1.496-1.258c0.72,0.051,1.303,0.685,1.301,1.458
			c-0.004,0.773-0.676,1.397-1.501,1.339C249.779,203.347,249.201,202.629,249.308,201.864z"/>
		<path style="fill:#D47975;" d="M245.374,201.013c0.234-0.738,0.983-1.159,1.682-0.991c0.701,0.171,1.17,0.89,1.042,1.654
			c-0.132,0.764-0.899,1.267-1.704,1.072C245.588,202.554,245.138,201.749,245.374,201.013z"/>
		<path style="fill:#D47975;" d="M241.797,199.587c0.352-0.691,1.157-0.983,1.819-0.704c0.666,0.283,1.012,1.067,0.759,1.799
			c-0.251,0.731-1.091,1.107-1.855,0.781C241.757,201.142,241.445,200.275,241.797,199.587z"/>
	</g>
	<g>
		<path style="fill:#D47975;" d="M238.494,197.586c0.463-0.623,1.305-0.776,1.911-0.393c0.606,0.388,0.82,1.218,0.452,1.899
			c-0.369,0.68-1.259,0.912-1.958,0.465C238.198,199.112,238.033,198.206,238.494,197.586z"/>
		<path style="fill:#D47975;" d="M235.582,195.064c0.563-0.534,1.42-0.546,1.951-0.064c0.532,0.482,0.6,1.338,0.124,1.947
			c-0.477,0.611-1.392,0.688-2.007,0.129C235.033,196.518,235.022,195.596,235.582,195.064z"/>
		<path style="fill:#D47975;" d="M233.147,192.367c0.523-0.34,1.202-0.223,1.551,0.234c0.349,0.46,0.284,1.144-0.183,1.56
			c-0.465,0.414-1.205,0.344-1.609-0.19C232.497,193.438,232.624,192.705,233.147,192.367z"/>
		<path style="fill:#D47975;" d="M231.335,188.799c0.575-0.238,1.221-0.001,1.483,0.51c0.258,0.513,0.073,1.174-0.459,1.5
			c-0.53,0.325-1.247,0.125-1.552-0.475C230.501,189.735,230.759,189.037,231.335,188.799z"/>
		<path style="fill:#D47975;" d="M272.488,188.696c0.576-0.239,1.222-0.001,1.483,0.509c0.26,0.513,0.075,1.174-0.459,1.501
			c-0.53,0.325-1.247,0.125-1.552-0.475C271.655,189.632,271.912,188.934,272.488,188.696z"/>
	</g>
</g>
<path style="opacity:0.13;fill:#303030;" d="M305.535,205.476c1.182-5.878-27.469-9.971-27.469-9.971
	c1.124,4.632-22.599,67.359-27.495,86.057c-0.031-0.146-0.061-0.299-0.091-0.397l-1.082,0.353
	c-4.996-18.896-29.418-82.149-28.194-86.797c0,0-30.183,3.855-29.001,9.782c1.969,9.858,17.193,23.742,24.302,29.784
	c-4.507,0.833-8.062,3.91-10.878,7.308c5.729,7.412,30.671,36.665,41.831,41.111c1.213,10.625,0.848,60.523-1.653,64.689
	l1.594,1.603c2.9-4.831,2.96-53.547,1.909-65.634c12.152-2.643,37.568-33.757,43.134-41.146c-2.644-3.398-5.995-6.488-10.27-7.356
	C288.987,228.92,303.581,215.256,305.535,205.476z"/>
<path style="fill:#C9A55A;" d="M194.102,202.404c1.895,9.858,16.546,23.743,23.386,29.785c-4.336,0.833-7.757,3.91-10.464,7.307
	c5.718,7.693,32.726,39.769,42.68,42.303c-3.105-15.206-28.926-84.312-27.694-89.175
	C222.01,192.623,192.967,196.478,194.102,202.404z"/>
<path style="fill:#C9A55A;" d="M305.535,203.382c-1.954,9.78-16.548,23.442-23.363,29.385c4.274,0.866,7.626,3.956,10.27,7.354
	c-5.718,7.592-32.586,39.252-42.438,41.677c3.205-15.08,29.237-83.541,28.063-88.388
	C278.066,193.41,306.717,197.504,305.535,203.382z"/>
<path style="fill:#D43831;" d="M221.388,230.169c-0.249-0.343-0.531-0.556-0.837-0.556c-0.953,0-1.724,1.907-1.724,4.259
	c0,1.458,0.297,2.74,0.75,3.508C220.794,237.061,221.274,234.127,221.388,230.169z"/>
<rect y="344.261" style="fill:#E8D5A6;" width="450" height="105.739"/>
<path style="fill:#D1B270;" d="M186.436,351.763c5.659-11.917,10.932-56.723,12.491-78.883
	c-7.356-18.531-12.991-49.713-10.344-62.82c-0.173-0.166-0.316-0.328-0.386-0.487l-0.031-0.632
	c-3.277,3.971-4.863,11.233-5.91,16.069c-1.925,8.916-16.493,65.186-20.197,84.59c-2.847,14.916-4.103,32.452,4.926,43.097
	C170.618,356.977,183.375,358.206,186.436,351.763z"/>
<g>
	<g>
		<path style="fill:#DE9F72;" d="M217.635,241.883c0.324-3.105,3.418-12.572,3.899-17.529c0.45-4.649-1.266-4.804,2.533-11.158
			c1.203-2.012,3.561-4.866,2.06-7.46c-1.389-2.396-3.827,0.873-5.653,2.698c-3.514,3.51-1.888,7.998-5.96,11.268
			c-2.143,1.72-5.749,0.285-7.583,2.378c-1.647,1.88-4.105,2.999-5.447,5.113c-3.749,5.932,0.013,15.484,2.228,21.367
			c0.863,2.303,3.466,9.429,7.039,8.773C213.426,256.839,216.993,248.057,217.635,241.883z"/>
		<g>
			<g>
				<path style="fill:#F89D91;" d="M225.596,179.447c0.001-0.013-0.007-0.023-0.006-0.037l0.002-0.032l-0.008-0.001
					c0.014-0.88-0.733-1.633-1.72-1.695c-0.984-0.061-1.816,0.593-1.915,1.468l-0.009,0l-0.002,0.033
					c-0.001,0.013-0.007,0.023-0.008,0.036c-0.001,0.012,0.004,0.023,0.003,0.037l-0.104,1.68l3.651,0.228l0.105-1.68
					C225.586,179.47,225.595,179.46,225.596,179.447z"/>
				
					<rect x="222.307" y="180.182" transform="matrix(0.0623 -0.9981 0.9981 0.0623 27.8284 393.9706)" style="fill:#5E3D49;" width="2.554" height="3.987"/>
				<g>
					
						<rect x="192.81" y="210.183" transform="matrix(0.0622 -0.9981 0.9981 0.0622 -3.8485 420.2571)" style="fill:#FFBE00;" width="57.806" height="3.987"/>
					
						<rect x="191.47" y="211.471" transform="matrix(0.062 -0.9981 0.9981 0.062 -4.9798 418.8872)" style="fill:#FFBE00;" width="57.806" height="1.243"/>
					
						<rect x="194.166" y="211.626" transform="matrix(0.0623 -0.9981 0.9981 0.0623 -2.673 421.677)" style="opacity:0.52;fill:#FFBE00;" width="57.806" height="1.27"/>
				</g>
			</g>
			<polygon style="fill:#E9A377;" points="217.915,240.882 219.327,250.426 221.917,241.131 			"/>
			<path d="M219.569,247.472c-0.229-0.014-0.445,0.076-0.645,0.22l0.403,2.734l0.764-2.741
				C219.933,247.563,219.758,247.483,219.569,247.472z"/>
		</g>
		<path style="fill:#F9C294;" d="M214.396,250.24c-0.686-4.536-5.874-9.723-8.3-13.424c-2.725-4.154-2.456-9.742,2.33-9.906
			c4.532-0.158,5.66-0.99,5.818,4.639c0.07,2.551-0.742,3.232,1.102,5.211c4.159,4.451,3.672-5.824,3.151-13.855
			c-0.007-0.103-0.01-0.205-0.018-0.309c-0.008-0.139-0.052-0.283-0.008-0.417c0.433-1.306,0.411-2.991-0.167-4.21
			c-0.139-0.293-0.051-0.395,0.011-0.677c0.407-1.837-0.139-2.79,0.032-2.733c0.587-0.056,4.838,11.217,7.64,11.845
			c5.731,1.28,1.107-5.334,0.321-6.949c-1.804-3.704-6.92-13.607-8.161-14.836c-1.883-1.866-4.037-1.536-6.511-1.109
			c-7.152,1.231-11.854,1.45-15.684,3.648c-3.205,1.839-2.559,8.53-3.158,11.92c-1.836,10.43,5.429,19.241,7.371,29.116
			c0.58,2.958-0.477,6.275-1.374,9.137c-0.632,2.02-3.066,5.427-1.918,6.999c1.724,2.363,17.188,6.551,17.725,3.336
			C216.22,257.94,214.879,253.436,214.396,250.24z"/>
		<path style="fill:#F0B387;" d="M227.717,226.592c-1.31,0.17-2.684-0.396-3.493-1.445c-0.752-1.078-1.374-2.218-2.04-3.343
			c-1.301-2.261-2.502-4.584-3.593-6.956c-0.277-0.591-0.544-1.185-0.841-1.76c-0.301-0.565-0.617-1.174-1.263-1.317
			c-1.23-0.373-2.539-0.511-3.826-0.655c-2.589-0.258-5.198-0.372-7.791-0.311c-0.123,0.003-0.229-0.092-0.231-0.217
			c-0.005-0.124,0.094-0.227,0.216-0.231c0,0,0.007,0,0.008,0c2.621-0.004,5.232,0.167,7.828,0.482
			c1.296,0.174,2.598,0.337,3.86,0.751c0.695,0.172,1.072,0.861,1.355,1.417c0.294,0.587,0.559,1.183,0.83,1.775
			c1.075,2.376,2.258,4.701,3.543,6.969c0.653,1.123,1.274,2.286,2.011,3.344c0.797,1.029,2.127,1.584,3.423,1.422
			c0.02-0.004,0.044,0.012,0.044,0.033S227.737,226.59,227.717,226.592z"/>
		<path style="fill:#F0B387;" d="M204.515,219.892c2.444-0.095,4.893-0.066,7.326,0.169c1.219,0.121,2.433,0.294,3.62,0.614
			c1.135,0.345,2.237,0.623,2.845,1.781c0.017,0.028,0.232,0.18,0.203,0.194c-0.028,0.014-0.186-0.371-0.203-0.398
			c-0.583-1.07-1.768-1.076-2.894-1.385c-1.177-0.287-2.384-0.434-3.595-0.528c-2.42-0.177-4.858-0.151-7.28-0.001
			c-0.123,0.009-0.23-0.084-0.238-0.207c-0.007-0.124,0.088-0.231,0.21-0.24C204.508,219.892,204.513,219.892,204.515,219.892z"/>
		<path style="fill:#F0B387;" d="M204.613,215.012c2.418-0.083,4.838,0.004,7.236,0.284c1.198,0.149,2.396,0.352,3.558,0.694
			c1.117,0.365,2.405,0.793,3.004,1.932c0.016,0.028-0.172-0.209-0.026,0.078c0.017,0.027-0.065-0.002-0.08-0.031
			c-0.577-1.049-1.843-1.457-2.951-1.787c-1.153-0.312-2.343-0.486-3.534-0.604c-2.387-0.226-4.794-0.255-7.182-0.12
			c-0.125,0.009-0.231-0.085-0.24-0.208c-0.009-0.123,0.086-0.23,0.208-0.239C204.608,215.012,204.613,215.012,204.613,215.012z"/>
	</g>
	<g>
		<path style="fill:#D43831;" d="M227.625,221.921c-0.177-0.039-0.355-0.048-0.52-0.001c-0.824,0.236-1.083,1.507-0.574,2.835
			c0.301,0.803,0.811,1.44,1.349,1.774C229.505,226.083,228.628,223.829,227.625,221.921z"/>
		<path style="fill:#D43831;" d="M218.776,232.9c-0.111-0.098-0.228-0.178-0.362-0.215c-0.827-0.219-1.737,0.934-2.025,2.57
			c-0.177,0.956-0.097,1.859,0.158,2.5C218.05,238.406,218.632,236.197,218.776,232.9z"/>
	</g>
</g>
<path style="fill:#8AB420;" d="M39.969,407.339c-0.515,1.592,0.479,3.001,2.202,3.135l106.168,8.261
	c1.726,0.135,3.558-1.053,4.072-2.643l19.041-43.756c0.513-1.592-0.452-5.607-2.175-5.741l-106.195-5.656
	c-1.726-0.133-3.557,1.055-4.069,2.646L39.969,407.339z"/>
<path style="fill:#B5D974;" d="M39.353,404.572c-0.514,1.59,0.479,3.001,2.204,3.133l106.169,8.264
	c1.723,0.132,3.556-1.056,4.071-2.647l19.041-43.753c0.514-1.594-0.478-3.001-2.2-3.137l-106.169-8.261
	c-1.727-0.136-3.559,1.054-4.069,2.643L39.353,404.572z"/>
<path style="fill:#FFFFFF;" d="M35.411,360.647c-0.546,1.579,0.42,3.01,2.141,3.176l105.983,10.373
	c1.72,0.167,3.307-1.033,3.853-2.614l0.065-0.195c0.546-1.583,0.093-3.473-1.626-3.643l-106.291-9.663
	c-1.724-0.17-3.579,0.982-4.121,2.563L35.411,360.647z"/>
<g>
	<g>
		<path style="fill:#8AB420;" d="M151.983,384.053c-0.029,0.09,0.027,0.17,0.125,0.178l6.024,0.469
			c0.098,0.008,0.202-0.06,0.231-0.15l1.08-2.482c0.029-0.09-0.027-0.17-0.125-0.178l-6.023-0.469
			c-0.098-0.008-0.202,0.06-0.231,0.15L151.983,384.053z"/>
		<path style="fill:#8AB420;" d="M150.359,387.776c-0.029,0.09,0.027,0.17,0.125,0.178l6.024,0.469
			c0.098,0.008,0.202-0.06,0.231-0.15l1.08-2.482c0.029-0.09-0.027-0.17-0.125-0.178l-6.023-0.469
			c-0.098-0.008-0.202,0.059-0.231,0.15L150.359,387.776z"/>
		<path style="fill:#8AB420;" d="M148.778,391.513c-0.029,0.09,0.027,0.17,0.125,0.178l6.024,0.469
			c0.098,0.008,0.202-0.06,0.231-0.15l1.08-2.482c0.029-0.09-0.027-0.17-0.125-0.178l-6.023-0.469
			c-0.098-0.008-0.202,0.06-0.231,0.15L148.778,391.513z"/>
		<path style="fill:#8AB420;" d="M147.075,395.442c-0.029,0.09,0.027,0.17,0.125,0.178l6.024,0.469
			c0.098,0.008,0.202-0.06,0.231-0.15l1.08-2.482c0.029-0.09-0.027-0.17-0.125-0.178l-6.023-0.469
			c-0.098-0.008-0.202,0.06-0.231,0.15L147.075,395.442z"/>
	</g>
</g>
<g>
	<g>
		<path style="fill:#8AB420;" d="M144.102,383.121c-0.029,0.09,0.027,0.17,0.125,0.178l6.024,0.469
			c0.098,0.008,0.202-0.06,0.231-0.15l1.08-2.482c0.029-0.09-0.027-0.17-0.125-0.178l-6.023-0.469
			c-0.098-0.008-0.202,0.06-0.231,0.15L144.102,383.121z"/>
		<path style="fill:#8AB420;" d="M142.477,386.844c-0.029,0.09,0.027,0.17,0.125,0.178l6.024,0.469
			c0.098,0.008,0.202-0.06,0.231-0.15l1.08-2.482c0.029-0.09-0.027-0.17-0.125-0.178l-6.023-0.469
			c-0.098-0.008-0.202,0.06-0.231,0.15L142.477,386.844z"/>
		<path style="fill:#8AB420;" d="M140.897,390.581c-0.029,0.09,0.027,0.17,0.125,0.178l6.024,0.469
			c0.098,0.008,0.202-0.06,0.231-0.15l1.08-2.482c0.029-0.09-0.027-0.17-0.125-0.178l-6.023-0.469
			c-0.098-0.008-0.202,0.06-0.231,0.15L140.897,390.581z"/>
		<path style="fill:#8AB420;" d="M139.193,394.51c-0.029,0.09,0.027,0.17,0.125,0.178l6.024,0.469
			c0.098,0.008,0.202-0.06,0.231-0.15l1.08-2.482c0.029-0.09-0.027-0.17-0.125-0.178l-6.023-0.469
			c-0.098-0.008-0.202,0.06-0.231,0.15L139.193,394.51z"/>
	</g>
</g>
<g>
	<path style="fill:#FFFFFF;" d="M151.483,383.72c-0.029,0.09,0.027,0.17,0.125,0.178l6.024,0.469c0.098,0.008,0.202-0.06,0.231-0.15
		l1.08-2.482c0.029-0.09-0.027-0.17-0.125-0.178l-6.023-0.469c-0.098-0.008-0.202,0.06-0.231,0.15L151.483,383.72z"/>
	<path style="fill:#FFFFFF;" d="M149.859,387.442c-0.029,0.09,0.027,0.17,0.125,0.178l6.024,0.469
		c0.098,0.008,0.202-0.06,0.231-0.15l1.08-2.482c0.029-0.09-0.027-0.17-0.125-0.178l-6.023-0.469
		c-0.098-0.008-0.202,0.06-0.231,0.15L149.859,387.442z"/>
	<path style="fill:#FFFFFF;" d="M148.278,391.18c-0.029,0.09,0.027,0.17,0.125,0.178l6.024,0.469c0.098,0.008,0.202-0.06,0.231-0.15
		l1.08-2.482c0.029-0.09-0.027-0.17-0.125-0.178l-6.023-0.469c-0.098-0.008-0.202,0.06-0.231,0.15L148.278,391.18z"/>
	<path style="fill:#FFFFFF;" d="M146.575,395.108c-0.029,0.09,0.027,0.17,0.125,0.178l6.024,0.469
		c0.098,0.008,0.202-0.06,0.231-0.15l1.08-2.482c0.029-0.09-0.027-0.17-0.125-0.178l-6.023-0.469
		c-0.098-0.008-0.202,0.06-0.231,0.15L146.575,395.108z"/>
</g>
<g>
	<path style="fill:#FFFFFF;" d="M143.602,382.788c-0.029,0.09,0.027,0.17,0.125,0.178l6.024,0.469
		c0.098,0.008,0.202-0.06,0.231-0.15l1.08-2.482c0.029-0.09-0.027-0.17-0.125-0.178l-6.023-0.469
		c-0.098-0.008-0.202,0.06-0.231,0.15L143.602,382.788z"/>
	<path style="fill:#FFFFFF;" d="M141.977,386.511c-0.029,0.09,0.027,0.17,0.125,0.178l6.024,0.469
		c0.098,0.008,0.202-0.06,0.231-0.15l1.08-2.482c0.029-0.09-0.027-0.17-0.125-0.178l-6.023-0.469
		c-0.098-0.008-0.202,0.06-0.231,0.15L141.977,386.511z"/>
	<path style="fill:#FFFFFF;" d="M140.397,390.248c-0.029,0.09,0.027,0.17,0.125,0.178l6.024,0.469
		c0.098,0.008,0.202-0.06,0.231-0.15l1.08-2.482c0.029-0.09-0.027-0.17-0.125-0.178l-6.023-0.469
		c-0.098-0.008-0.202,0.06-0.231,0.15L140.397,390.248z"/>
	<path style="fill:#4A4F52;" d="M138.693,394.177c-0.029,0.09,0.027,0.17,0.125,0.178l6.024,0.469
		c0.098,0.008,0.202-0.06,0.231-0.15l1.08-2.483c0.029-0.09-0.027-0.17-0.125-0.178l-6.023-0.469
		c-0.098-0.008-0.202,0.06-0.231,0.15L138.693,394.177z"/>
</g>
<g>
	<path style="fill:#8AB420;" d="M151.985,410.222c0.206,2.563-2.546,5.607-4.29,5.482L42.2,407.772
		c-1.743-0.129-3.339-2.328-3.543-4.896L28.122,331.33c-0.204-2.567,1.054-4.559,2.796-4.43l107.319,7.894
		c1.744,0.129,3.338,2.328,3.542,4.897L151.985,410.222z"/>
	<path style="fill:#FFFFFF;" d="M150.273,409.025c0.198,2.459-1.011,4.364-2.682,4.241l-102.925-7.572
		c-1.671-0.119-3.201-2.23-3.398-4.685l-10.108-68.54c-0.195-2.459,1.01-4.365,2.682-4.245l102.924,7.572
		c1.672,0.121,3.202,2.231,3.396,4.689L150.273,409.025z"/>
	<path style="fill:#B5D974;" d="M149.273,410.025c0.198,2.459-1.011,4.364-2.682,4.241l-102.925-7.572
		c-1.671-0.119-3.201-2.23-3.398-4.685l-10.108-68.54c-0.195-2.459,1.01-4.365,2.682-4.245l102.924,7.572
		c1.672,0.121,3.202,2.231,3.396,4.689L149.273,410.025z"/>
</g>
<polygon style="fill:#E3E3E3;" points="254.554,434.984 173.624,434.984 185.336,362.573 249.76,363.64 "/>
<polygon style="fill:#FFFFFF;" points="255.21,435.203 174.28,435.203 185.993,362.792 250.416,363.858 "/>
<g>
	<g>
		<polygon style="fill:#E3E3E3;" points="295.193,423.289 207.727,427.563 199.858,360.717 265.834,358.58 		"/>
	</g>
</g>
<g>
	<g>
		<polygon style="fill:#FFFFFF;" points="295.85,422.961 208.383,427.198 200.514,360.918 266.49,358.799 		"/>
	</g>
</g>
<g>
	<g>
		<path style="fill:#DBDBDB;" d="M216.266,416.147c-0.125,0-0.228-0.102-0.234-0.232c-0.005-0.134,0.094-0.248,0.224-0.256
			l68.392-3.359c0.14-0.002,0.238,0.1,0.245,0.233c0.005,0.135-0.095,0.251-0.223,0.255l-68.393,3.36
			C216.273,416.147,216.269,416.147,216.266,416.147z"/>
	</g>
	<g>
		<path style="fill:#DBDBDB;" d="M215.755,411.551c-0.124,0-0.228-0.101-0.234-0.232c-0.005-0.133,0.094-0.25,0.224-0.254
			l66.909-3.306c0.122,0,0.238,0.097,0.245,0.231c0.006,0.136-0.095,0.251-0.223,0.255l-66.91,3.305
			C215.762,411.551,215.759,411.551,215.755,411.551z"/>
	</g>
	<g>
		<path style="fill:#DBDBDB;" d="M215.242,406.958c-0.123,0-0.226-0.104-0.233-0.233c-0.004-0.134,0.095-0.247,0.222-0.257
			l65.429-3.248c0.137,0.002,0.237,0.099,0.246,0.232c0.005,0.135-0.094,0.249-0.223,0.256l-65.43,3.25
			C215.249,406.958,215.246,406.958,215.242,406.958z"/>
	</g>
	<g>
		<path style="fill:#DBDBDB;" d="M214.73,402.361c-0.122,0-0.225-0.103-0.233-0.231c-0.004-0.133,0.094-0.247,0.223-0.257
			l63.947-3.192c0.113,0.004,0.237,0.097,0.243,0.23c0.004,0.133-0.094,0.247-0.223,0.255l-63.947,3.195
			C214.737,402.361,214.734,402.361,214.73,402.361z"/>
	</g>
	<g>
		<path style="fill:#DBDBDB;" d="M213.964,397.597c-0.124,0-0.226-0.102-0.233-0.233c-0.008-0.134,0.092-0.248,0.221-0.256
			l61.723-3.111c0.137,0.008,0.239,0.096,0.244,0.233c0.007,0.133-0.094,0.247-0.22,0.255l-61.724,3.112
			C213.972,397.597,213.967,397.597,213.964,397.597z"/>
	</g>
</g>
<g>
	<path style="fill:#532808;" d="M209.661,374.334c-0.129,0-0.238-0.101-0.244-0.232c-0.008-0.133,0.096-0.248,0.23-0.258
		l56.199-2.76c0.15,0.005,0.246,0.1,0.256,0.233c0.006,0.136-0.098,0.251-0.234,0.255l-56.195,2.762
		C209.669,374.334,209.665,374.334,209.661,374.334z"/>
</g>
<g>
	<path style="fill:#F9C294;" d="M250.961,369.211c-1.627-3.241-3.227-5.524-6.836-6.279c-3.267-0.683-6.1-1.821-9.261-2.899
		c-4.028-1.367-7.985-2.375-11.916-3.821c-3.183-1.175-13.051,0.189-19.368,7.982c-1.973,2.433-14.489,16.675-4.854,14.195
		c-0.028,0.075,0.6-0.168,0.545-0.051c-0.715,1.573-4.969,5.493-2.43,7.483c2.351,1.845,4.425-1.96,6.126-3.322
		c-0.248,5.986,5.343,2.436,9.313-1.919c0.163,4.604,5.663,1.894,7.828-0.272c2.97-2.973,5.894-6.196,10.428-5.752
		c3.976,0.392,8.003,3.071,12.122,3.342c3.702,0.236,7.666-0.366,11.342-0.699C253.659,374.435,252.229,371.73,250.961,369.211z"/>
	<g style="opacity:0.32;">
		<path style="fill:#612800;" d="M198.39,378.556c0.785-0.225,1.439-0.78,2.057-1.27c1.394-1.175,2.606-2.679,3.871-3.985
			c2.518-2.616,4.966-5.164,7.461-7.759c0.008-0.007,0.02-0.02,0.023-0.023c0.171-0.201,0.155-0.51-0.04-0.689
			c-0.2-0.179-0.502-0.162-0.677,0.036c-2.411,2.749-4.86,5.584-7.251,8.309c-1.198,1.354-2.269,2.569-3.53,3.94
			c-0.418,0.363-0.839,0.749-1.313,1.039c-0.6,0.306-1.12,0.456-1.575,0.503c-0.133,0.018-0.27,0.017-0.404,0.018
			c-1.01-0.022-1.457-0.569-1.841-0.982C195.296,378.459,196.575,379.355,198.39,378.556z"/>
		<path style="fill:#612800;" d="M250.961,369.211c-0.45-0.901-0.903-1.721-1.397-2.461c0.393,0.635,0.765,1.317,1.144,2.058
			c1.256,2.522,2.69,5.224,3.028,7.986c-3.671,0.334-7.632,0.94-11.34,0.694c-4.113-0.265-8.143-2.941-12.119-3.334
			c-4.541-0.446-7.461,2.779-10.43,5.752c-1.755,1.753-5.702,3.867-7.224,2.145c1.253,2.401,5.616,0.127,7.487-1.744
			c2.97-2.973,5.894-6.196,10.428-5.752c3.976,0.392,8.003,3.071,12.122,3.342c3.702,0.236,7.666-0.366,11.342-0.699
			C253.659,374.435,252.229,371.73,250.961,369.211z"/>
		<path style="fill:#612800;" d="M206.066,379.652c2.833-2.854,5.623-5.757,8.401-8.65c0.006-0.005,0.014-0.014,0.018-0.018
			c0.174-0.197,0.161-0.507-0.037-0.685c-0.198-0.185-0.502-0.169-0.677,0.028c-2.664,3.017-5.333,6.021-8.051,8.985
			c-0.868,0.95-1.76,1.884-2.647,2.82c-1.693,1.412-4.175,5.103-6.492,3.284c-0.201-0.156-0.295-0.332-0.431-0.495
			c0.138,0.277,0.301,0.555,0.601,0.809c-0.038-0.024-0.082-0.037-0.119-0.068c0.041,0.044,0.093,0.054,0.137,0.084
			c0.025,0.027,0.045,0.051,0.074,0.073c1.561,1.224,3.191-0.172,4.592-1.639c0.112-0.105,0.219-0.202,0.33-0.304
			C203.227,382.498,204.65,381.077,206.066,379.652z"/>
		<path style="fill:#612800;" d="M211.402,381.804c2.177-1.964,4.207-4.111,6.199-6.225l0.017-0.013
			c0.006-0.008,0.014-0.018,0.021-0.022c0.17-0.204,0.145-0.51-0.055-0.688c-0.206-0.174-0.506-0.151-0.676,0.053
			c-1.896,2.262-3.759,4.483-5.805,6.567c-0.203,0.202-0.41,0.391-0.609,0.587c-2.799,2.505-5.912,4.152-7.15,2.712
			c0.198,0.408,0.491,0.657,0.842,0.797c0.554,0.265,1.249,0.105,1.82-0.046c0.706-0.212,1.346-0.586,1.958-0.984
			c0.243-0.155,0.46-0.34,0.692-0.508c0.17-0.12,0.341-0.246,0.514-0.377C209.934,383.066,210.685,382.449,211.402,381.804z
			 M204.572,385.671c-0.076-0.01-0.156-0.013-0.224-0.033C204.416,385.658,204.496,385.659,204.572,385.671z"/>
	</g>
	<path style="fill:#D43831;" d="M195.852,376.031c0.843-1.162,2.099-1.671,2.802-1.139c0.698,0.535,0.577,1.909-0.274,3.067
		c-0.846,1.159-2.104,1.666-2.806,1.134C194.878,378.563,194.997,377.185,195.852,376.031z"/>
	<path style="fill:#D43831;" d="M196.73,383.293c0.961-1.171,2.287-1.659,2.954-1.087c0.675,0.572,0.438,1.986-0.524,3.157
		c-0.957,1.171-2.284,1.661-2.954,1.088C195.537,385.882,195.77,384.466,196.73,383.293z"/>
	<path style="fill:#D43831;" d="M203.317,383.036c0.96-1.17,2.288-1.658,2.953-1.087c0.671,0.57,0.435,1.984-0.522,3.157
		c-0.964,1.174-2.288,1.66-2.958,1.093C202.119,385.627,202.357,384.211,203.317,383.036z"/>
	<path style="fill:#D43831;" d="M213.15,380.649c0.874-0.906,2.011-1.216,2.537-0.692c0.528,0.529,0.248,1.692-0.629,2.597
		c-0.876,0.907-2.012,1.217-2.537,0.693C211.994,382.721,212.274,381.553,213.15,380.649z"/>
</g>
<path style="fill:#D1B270;" d="M336.595,298.22c-3.511-18.67-20.304-76.852-21.601-87.636l-0.283,0.283
	c0.118,11.85-10.074,63.812-13.397,67.205c0.01,0.041,0.013,0.083,0.02,0.124c2.751,14.215,6.805,33.081,10.174,47.114
	c0.701,2.926-51.318,21.411-70.798,33.047c3.212,7.103,6.988,14.857,13.412,21.956c22.143-6.254,78.808-30.792,83.082-34.908
	C347.724,335.275,339.124,311.694,336.595,298.22z"/>
<g>
	<path style="opacity:0.13;fill:#303030;" d="M256.107,295.485c0,1.502-1.214,2.716-2.717,2.716c-1.501,0-2.718-1.214-2.718-2.716
		c0-1.499,1.217-2.718,2.718-2.718C254.894,292.768,256.107,293.986,256.107,295.485z"/>
	<path style="fill:#7A3B0C;" d="M256.107,295.332c0,1.418-1.148,2.566-2.565,2.566c-1.414,0-2.565-1.148-2.565-2.566
		c0-1.413,1.151-2.564,2.565-2.564C254.959,292.768,256.107,293.919,256.107,295.332z"/>
</g>
<g>
	<path style="opacity:0.13;fill:#303030;" d="M255.847,326.906c0,1.502-1.215,2.719-2.719,2.719c-1.501,0-2.714-1.217-2.714-2.719
		c0-1.499,1.213-2.715,2.714-2.715C254.632,324.191,255.847,325.407,255.847,326.906z"/>
	<path style="fill:#7A3B0C;" d="M255.847,326.756c0,1.416-1.151,2.565-2.565,2.565c-1.417,0-2.566-1.149-2.566-2.565
		c0-1.416,1.149-2.564,2.566-2.564C254.695,324.191,255.847,325.34,255.847,326.756z"/>
</g>
<g>
	<g>
		<path style="fill:#F89D91;" d="M378.085,382.303c0.014-0.002,0.022-0.011,0.036-0.012l0.036-0.004l-0.001-0.009
			c0.934-0.155,1.592-1.11,1.47-2.2c-0.122-1.09-0.975-1.876-1.92-1.82l-0.001-0.008l-0.037,0.004
			c-0.014,0.001-0.024-0.006-0.037-0.004c-0.016,0.002-0.026,0.011-0.038,0.013l-1.804,0.201l0.453,4.037l1.803-0.202
			C378.057,382.298,378.069,382.304,378.085,382.303z"/>
		
			<rect x="373.432" y="378.405" transform="matrix(0.9938 -0.1114 0.1114 0.9938 -40.0792 44.1367)" style="fill:#5E3D49;" width="2.753" height="4.426"/>
		<g>
			
				<rect x="311.475" y="382.012" transform="matrix(0.9938 -0.1114 0.1114 0.9938 -40.665 40.5536)" style="fill:#FFBE00;" width="62.289" height="4.427"/>
			
				<rect x="311.309" y="382.056" transform="matrix(0.9938 -0.1113 0.1113 0.9938 -40.4635 40.4838)" style="fill:#FFBE00;" width="62.289" height="1.378"/>
			
				<rect x="311.643" y="385.017" transform="matrix(0.9938 -0.1113 0.1113 0.9938 -40.8092 40.5576)" style="opacity:0.52;fill:#FFBE00;" width="62.289" height="1.412"/>
		</g>
	</g>
	<polygon style="fill:#E9A377;" points="311.435,385.478 301.579,388.825 311.933,389.906 	"/>
	<path d="M304.758,388.531c-0.028-0.252-0.165-0.47-0.355-0.664l-2.823,0.958l3.051,0.317
		C304.728,388.946,304.781,388.739,304.758,388.531z"/>
</g>
<g>
	<g>
		<path style="fill:#F89D91;" d="M394.345,402.168c0.015,0,0.024-0.007,0.038-0.006l0.036,0.001v-0.009
			c0.946-0.021,1.733-0.874,1.767-1.971c0.033-1.096-0.7-1.995-1.643-2.073v-0.008l-0.037-0.002c-0.014,0-0.023-0.009-0.036-0.009
			c-0.016,0-0.027,0.007-0.039,0.007l-1.814-0.056l-0.122,4.061l1.813,0.055C394.317,402.16,394.329,402.167,394.345,402.168z"/>
		
			<rect x="389.127" y="398.661" transform="matrix(0.0302 -0.9995 0.9995 0.0302 -20.3429 779.1077)" style="fill:#5E3D49;" width="4.426" height="2.753"/>
		<g>
			
				<rect x="356.75" y="367.911" transform="matrix(0.0302 -0.9995 0.9995 0.0302 -50.7572 745.7973)" style="fill:#FFBE00;" width="4.427" height="62.289"/>
			
				<rect x="358.32" y="366.423" transform="matrix(0.0305 -0.9995 0.9995 0.0305 -49.3196 744.2881)" style="fill:#FFBE00;" width="1.378" height="62.29"/>
			
				<rect x="358.212" y="369.418" transform="matrix(0.0304 -0.9995 0.9995 0.0304 -52.383 747.1229)" style="opacity:0.52;fill:#FFBE00;" width="1.412" height="62.289"/>
		</g>
	</g>
	<polygon style="fill:#E9A377;" points="327.916,395.887 317.685,397.806 327.782,400.34 	"/>
	<path d="M320.874,397.964c0.008-0.253-0.097-0.488-0.258-0.707l-2.931,0.549l2.976,0.745
		C320.786,398.371,320.868,398.173,320.874,397.964z"/>
</g>
<path style="opacity:0.5;fill:#EF9983;" d="M289.485,119.585c1.285,2.747-0.321,6.211-3.584,7.738
	c-3.266,1.527-6.954,0.539-8.238-2.207c-1.284-2.747,0.32-6.211,3.586-7.738C284.513,115.851,288.201,116.839,289.485,119.585z"/>
<path style="opacity:0.5;fill:#EF9983;" d="M215.477,120.046c-1.285,2.747,0.321,6.211,3.584,7.738
	c3.266,1.527,6.954,0.539,8.238-2.207c1.284-2.747-0.32-6.212-3.586-7.738C220.449,116.312,216.761,117.3,215.477,120.046z"/>
<path style="fill:#C9A55A;" d="M220.668,265.214c-7.944,16.806-23.923,79.189-33.799,87.655
	c-10.032,8.608-21.795,2.628-24.455-4.221c-9.034-23.283,32.686-90.567,33.21-92.202
	C195.719,256.153,209.159,264.743,220.668,265.214z"/>
</svg>
